# xmcd
#
# Track frame offsets:
#	150
#	13877
#	25002
#	37955
#	50557
#	61822
#	79495
#	89097
#	112020
#	125700
#	141822
#	161992
#	182505
#	195677
#	211702
#
# Disc length: 2968 seconds
#
# Revision: 1
# Processed by: cddbd v1.4PL0 Copyright (c) Steve Scherf et al.
# Submitted via: audiograbber 1.81.02
#
DISCID=d60b960f
DTITLE=PHIL COLLINS - HITS
DYEAR=2002
DGENRE=
TTITLE0=ANOTHER DAY IN PARADISE
TTITLE1=TRUE COLOR
TTITLE2=EASY LOVER
TTITLE3=YOU CAN'T HURRY LOVE
TTITLE4=TWO HEARTS
TTITLE5=I WISH IT WOULD RAIN DOWN
TTITLE6=AGAINST ALL ODDS
TTITLE7=SOMETHING HAPPENED ON THE WAY TO HEAVEN
TTITLE8=SEPARATE LIVES
TTITLE9=BOTH SIDES OF THE STORY
TTITLE10=ONE MORE NIGHT
TTITLE11=SUSSUDIO
TTITLE12=DANCE INTO THE LIGHT
TTITLE13=A GROOVY KIND OF LOVE
TTITLE14=IN THE AIR TONIGHT
EXTD=
EXTT0=
EXTT1=
EXTT2=
EXTT3=
EXTT4=
EXTT5=
EXTT6=
EXTT7=
EXTT8=
EXTT9=
EXTT10=
EXTT11=
EXTT12=
EXTT13=
EXTT14=
PLAYORDER=
